<mxfile host="app.diagrams.net" modified="2023-02-14T07:31:30.555Z" agent="5.0 (Macintosh; Intel Mac OS X 10_15_7) AppleWebKit/537.36 (KHTML, like Gecko) Chrome/109.0.0.0 Safari/537.36" version="20.8.5" etag="fONvkWUfLXzJnQfBU5YG" type="github">
  <diagram id="069mXlZgiNTChSjant99" name="第 1 页">
    <mxGraphModel dx="2074" dy="1043" grid="1" gridSize="10" guides="1" tooltips="1" connect="1" arrows="1" fold="1" page="1" pageScale="1" pageWidth="1169" pageHeight="1654" math="0" shadow="0">
      <root>
        <mxCell id="0" />
        <mxCell id="1" parent="0" />
        <mxCell id="Ui7_pYZ_Vi21XEhTOCzs-2" value="&lt;b&gt;&lt;font style=&quot;font-size: 15px;&quot;&gt;合并代码&lt;/font&gt;&lt;/b&gt;" style="ellipse;whiteSpace=wrap;html=1;aspect=fixed;strokeWidth=3;" vertex="1" parent="1">
          <mxGeometry x="820" y="410" width="80" height="80" as="geometry" />
        </mxCell>
        <mxCell id="Ui7_pYZ_Vi21XEhTOCzs-3" value="&lt;font style=&quot;font-size: 15px;&quot;&gt;&lt;b&gt;部署代码&lt;/b&gt;&lt;/font&gt;" style="ellipse;whiteSpace=wrap;html=1;aspect=fixed;strokeWidth=3;" vertex="1" parent="1">
          <mxGeometry x="820" y="580" width="80" height="80" as="geometry" />
        </mxCell>
        <mxCell id="Ui7_pYZ_Vi21XEhTOCzs-6" value="" style="endArrow=classic;html=1;rounded=0;strokeWidth=3;" edge="1" parent="1" target="Ui7_pYZ_Vi21XEhTOCzs-3">
          <mxGeometry width="50" height="50" relative="1" as="geometry">
            <mxPoint x="860" y="490" as="sourcePoint" />
            <mxPoint x="910" y="440" as="targetPoint" />
          </mxGeometry>
        </mxCell>
        <mxCell id="Ui7_pYZ_Vi21XEhTOCzs-7" value="&lt;font style=&quot;font-size: 15px;&quot;&gt;&lt;b&gt;确定压测交易&lt;/b&gt;&lt;/font&gt;" style="ellipse;whiteSpace=wrap;html=1;aspect=fixed;strokeWidth=3;" vertex="1" parent="1">
          <mxGeometry x="820" y="750" width="80" height="80" as="geometry" />
        </mxCell>
        <mxCell id="Ui7_pYZ_Vi21XEhTOCzs-8" value="" style="endArrow=classic;html=1;rounded=0;strokeWidth=3;" edge="1" parent="1">
          <mxGeometry width="50" height="50" relative="1" as="geometry">
            <mxPoint x="859.5" y="660" as="sourcePoint" />
            <mxPoint x="859.5" y="750" as="targetPoint" />
          </mxGeometry>
        </mxCell>
        <mxCell id="Ui7_pYZ_Vi21XEhTOCzs-9" value="&lt;b&gt;&lt;font style=&quot;font-size: 15px;&quot;&gt;观察运行状态&lt;/font&gt;&lt;/b&gt;" style="ellipse;whiteSpace=wrap;html=1;aspect=fixed;strokeWidth=3;fillColor=#f5f5f5;strokeColor=#666666;fontColor=#333333;" vertex="1" parent="1">
          <mxGeometry x="820" y="920" width="80" height="80" as="geometry" />
        </mxCell>
        <mxCell id="Ui7_pYZ_Vi21XEhTOCzs-11" value="" style="endArrow=classic;html=1;rounded=0;strokeWidth=3;" edge="1" parent="1">
          <mxGeometry width="50" height="50" relative="1" as="geometry">
            <mxPoint x="859.5" y="830" as="sourcePoint" />
            <mxPoint x="859.5" y="920" as="targetPoint" />
          </mxGeometry>
        </mxCell>
        <mxCell id="Ui7_pYZ_Vi21XEhTOCzs-12" value="&lt;b style=&quot;border-color: var(--border-color); font-size: 12px;&quot;&gt;&lt;font style=&quot;border-color: var(--border-color); font-size: 15px;&quot;&gt;合并代码&lt;/font&gt;&lt;/b&gt;" style="rounded=1;whiteSpace=wrap;html=1;strokeWidth=3;fontSize=15;" vertex="1" parent="1">
          <mxGeometry x="320" y="440" width="120" height="60" as="geometry" />
        </mxCell>
        <mxCell id="Ui7_pYZ_Vi21XEhTOCzs-13" value="" style="endArrow=classic;html=1;rounded=0;strokeWidth=3;" edge="1" parent="1">
          <mxGeometry width="50" height="50" relative="1" as="geometry">
            <mxPoint x="379.5" y="500" as="sourcePoint" />
            <mxPoint x="379.5" y="590" as="targetPoint" />
          </mxGeometry>
        </mxCell>
        <mxCell id="Ui7_pYZ_Vi21XEhTOCzs-16" value="" style="edgeStyle=orthogonalEdgeStyle;rounded=0;orthogonalLoop=1;jettySize=auto;html=1;strokeWidth=3;fontSize=15;" edge="1" parent="1" source="Ui7_pYZ_Vi21XEhTOCzs-14" target="Ui7_pYZ_Vi21XEhTOCzs-15">
          <mxGeometry relative="1" as="geometry" />
        </mxCell>
        <mxCell id="Ui7_pYZ_Vi21XEhTOCzs-14" value="&lt;b style=&quot;border-color: var(--border-color);&quot;&gt;部署到私链&lt;/b&gt;" style="rounded=1;whiteSpace=wrap;html=1;strokeWidth=3;fontSize=15;" vertex="1" parent="1">
          <mxGeometry x="320" y="590" width="120" height="60" as="geometry" />
        </mxCell>
        <mxCell id="Ui7_pYZ_Vi21XEhTOCzs-18" value="" style="edgeStyle=orthogonalEdgeStyle;rounded=0;orthogonalLoop=1;jettySize=auto;html=1;strokeWidth=3;fontSize=15;" edge="1" parent="1" source="Ui7_pYZ_Vi21XEhTOCzs-15" target="Ui7_pYZ_Vi21XEhTOCzs-17">
          <mxGeometry relative="1" as="geometry" />
        </mxCell>
        <mxCell id="Ui7_pYZ_Vi21XEhTOCzs-15" value="&lt;b style=&quot;border-color: var(--border-color);&quot;&gt;节点正常产块&lt;br&gt;&lt;/b&gt;" style="rounded=1;whiteSpace=wrap;html=1;strokeWidth=3;fontSize=15;" vertex="1" parent="1">
          <mxGeometry x="320" y="730" width="120" height="60" as="geometry" />
        </mxCell>
        <mxCell id="Ui7_pYZ_Vi21XEhTOCzs-17" value="构建交易" style="whiteSpace=wrap;html=1;fontSize=15;rounded=1;strokeWidth=3;" vertex="1" parent="1">
          <mxGeometry x="320" y="870" width="120" height="60" as="geometry" />
        </mxCell>
      </root>
    </mxGraphModel>
  </diagram>
</mxfile>
